<svg width="164" height="34" viewBox="0 0 164 34" fill="none" xmlns="http://www.w3.org/2000/svg">
<path d="M4.59347 0H32.3205L44.2035 22.7758H16.4765L4.59347 0Z" fill="white" fill-opacity="0.5"/>
<path d="M40.49 33.6685L12.763 33.6685L0.879957 10.8927L28.607 10.8927L40.49 33.6685Z" fill="white"/>
<path d="M66.3738 31.5266V15.1817H62.8291V10.7311H66.3738V9.54957C66.3738 8.42052 66.5576 7.38337 66.9252 6.43812C67.3191 5.46661 67.8574 4.63952 68.54 3.95684C69.249 3.2479 70.0761 2.70963 71.0213 2.34203C71.9928 1.94818 73.0431 1.75125 74.1722 1.75125C75.0386 1.75125 75.8132 1.85628 76.4959 2.06634C77.2048 2.27639 77.8087 2.5127 78.3076 2.77527L77.2048 6.98952C76.8897 6.83197 76.5222 6.70069 76.102 6.59566C75.7082 6.46438 75.3275 6.39873 74.9599 6.39873C73.9096 6.39873 73.135 6.71382 72.6361 7.34398C72.1372 7.94789 71.8878 8.80125 71.8878 9.90404V10.7311H77.4018V15.1817H71.8878V31.5266H66.3738Z" fill="white"/>
<path d="M83.6308 31.5266V2.14511H89.1448V31.5266H83.6308Z" fill="white"/>
<path d="M102.613 5.09902C102.613 5.70293 102.468 6.24119 102.18 6.71382C101.917 7.18644 101.536 7.56717 101.037 7.856C100.565 8.11857 100.04 8.24985 99.4619 8.24985C98.8843 8.24985 98.346 8.11857 97.8471 7.856C97.3745 7.56717 96.9938 7.18644 96.7049 6.71382C96.4424 6.24119 96.3111 5.70293 96.3111 5.09902C96.3111 4.49511 96.4424 3.95684 96.7049 3.48421C96.9938 3.01159 97.3745 2.64399 97.8471 2.38142C98.346 2.09259 98.8843 1.94818 99.4619 1.94818C100.04 1.94818 100.565 2.09259 101.037 2.38142C101.536 2.64399 101.917 3.01159 102.18 3.48421C102.468 3.95684 102.613 4.49511 102.613 5.09902ZM96.7049 31.5266V10.7311H102.219V31.5266H96.7049Z" fill="white"/>
<path d="M109.779 31.5266V10.7311H114.86L115.017 13.4093C115.621 12.4116 116.448 11.6239 117.499 11.0462C118.575 10.4423 119.796 10.1404 121.161 10.1404C122.684 10.1404 124.01 10.5079 125.139 11.2431C126.295 11.9521 127.187 12.9761 127.818 14.3152C128.448 15.6543 128.763 17.2297 128.763 19.0415V31.5266H123.249V19.7504C123.249 18.3063 122.921 17.1772 122.264 16.3633C121.608 15.523 120.702 15.1029 119.547 15.1029C118.706 15.1029 117.971 15.2998 117.341 15.6937C116.711 16.0613 116.212 16.5864 115.844 17.2691C115.477 17.9518 115.293 18.7264 115.293 19.5929V31.5266H109.779Z" fill="white"/>
<path d="M144.757 32.1174C143.313 32.1174 142.066 31.8417 141.016 31.2903C139.992 30.7127 139.191 29.8856 138.613 28.809C138.062 27.7325 137.786 26.4197 137.786 24.8705V15.1817H134.241V10.7311H137.786V3.64175H143.3V10.7311H148.972V15.1817H143.3V24.201C143.3 25.1987 143.51 25.9733 143.93 26.5247C144.35 27.0498 144.994 27.3124 145.86 27.3124C146.306 27.3124 146.779 27.2468 147.278 27.1155C147.803 26.9842 148.302 26.8135 148.775 26.6035L149.759 30.7389C149.077 31.159 148.315 31.4873 147.475 31.7236C146.635 31.9861 145.729 32.1174 144.757 32.1174Z" fill="white"/>
<path d="M159.655 31.6842C158.998 31.6842 158.407 31.5266 157.882 31.2116C157.383 30.8965 156.976 30.4764 156.661 29.9512C156.346 29.4261 156.189 28.8484 156.189 28.2183C156.189 27.5881 156.346 27.0104 156.661 26.4853C156.976 25.9602 157.383 25.5401 157.882 25.225C158.407 24.9099 158.998 24.7523 159.655 24.7523C160.311 24.7523 160.889 24.9099 161.388 25.225C161.913 25.5401 162.333 25.9602 162.648 26.4853C162.963 27.0104 163.121 27.5881 163.121 28.2183C163.121 28.8484 162.963 29.4261 162.648 29.9512C162.333 30.4764 161.913 30.8965 161.388 31.2116C160.889 31.5266 160.311 31.6842 159.655 31.6842Z" fill="white"/>
</svg>
